<svg xmlns="http://www.w3.org/2000/svg" viewBox="0 0 32 32" width="32" height="32">
  <defs>
    <radialGradient id="wheelGradient" cx="50%" cy="50%" r="50%">
      <stop offset="0%" style="stop-color:#667eea;stop-opacity:1" />
      <stop offset="100%" style="stop-color:#764ba2;stop-opacity:1" />
    </radialGradient>
  </defs>
  
  <!-- Outer ring -->
  <circle cx="16" cy="16" r="15" fill="url(#wheelGradient)" stroke="#333" stroke-width="1"/>
  
  <!-- Segments -->
  <path d="M 16 16 L 16 1 A 15 15 0 0 1 27.07 8.93 Z" fill="#FF6B6B"/>
  <path d="M 16 16 L 27.07 8.93 A 15 15 0 0 1 27.07 23.07 Z" fill="#4ECDC4"/>
  <path d="M 16 16 L 27.07 23.07 A 15 15 0 0 1 16 31 Z" fill="#45B7D1"/>
  <path d="M 16 16 L 16 31 A 15 15 0 0 1 4.93 23.07 Z" fill="#96CEB4"/>
  <path d="M 16 16 L 4.93 23.07 A 15 15 0 0 1 4.93 8.93 Z" fill="#FFEAA7"/>
  <path d="M 16 16 L 4.93 8.93 A 15 15 0 0 1 16 1 Z" fill="#DDA0DD"/>
  
  <!-- Center circle -->
  <circle cx="16" cy="16" r="3" fill="#333" stroke="#fff" stroke-width="1"/>
  
  <!-- Pointer -->
  <polygon points="16,2 14,6 18,6" fill="#ff6b6b" stroke="#fff" stroke-width="0.5"/>
</svg>